<svg xmlns="http://www.w3.org/2000/svg" id="flag-icon-css-us" width="640" height="480">
  <defs>
    <clipPath id="a">
      <path fill-opacity=".7" d="M-85.3 0h682.6v512H-85.3z"/>
    </clipPath>
    <!-- Define a single star -->
    <g id="star">
      <path fill="#fff" d="M0-5L1.5-1.5 5 0l-3.5 1.5L0 5l-1.5-3.5L-5 0l3.5-1.5z"/>
    </g>
  </defs>
  <g clip-path="url(#a)" transform="translate(80) scale(.94)">
    <!-- Red and white stripes -->
    <g stroke-width="1pt">
      <rect fill="#b22234" width="768" height="38.4"/>
      <rect fill="#fff" width="768" height="38.4" y="38.4"/>
      <rect fill="#b22234" width="768" height="38.4" y="76.8"/>
      <rect fill="#fff" width="768" height="38.4" y="115.2"/>
      <rect fill="#b22234" width="768" height="38.4" y="153.6"/>
      <rect fill="#fff" width="768" height="38.4" y="192"/>
      <rect fill="#b22234" width="768" height="38.4" y="230.4"/>
      <rect fill="#fff" width="768" height="38.4" y="268.8"/>
      <rect fill="#b22234" width="768" height="38.4" y="307.2"/>
      <rect fill="#fff" width="768" height="38.4" y="345.6"/>
      <rect fill="#b22234" width="768" height="38.4" y="384"/>
      <rect fill="#fff" width="768" height="38.4" y="422.4"/>
      <rect fill="#b22234" width="768" height="38.4" y="460.8"/>
    </g>
    <!-- Blue canton -->
    <rect fill="#3c3b6e" width="300" height="230.4"/>
    <!-- Stars pattern -->
    <g transform="translate(30, 25)">
      <!-- 9 rows of 5 stars -->
      <g>
        <use href="#star"/>
        <use href="#star" x="60"/>
        <use href="#star" x="120"/>
        <use href="#star" x="180"/>
        <use href="#star" x="240"/>
      </g>
      <g transform="translate(0, 40)">
        <use href="#star"/>
        <use href="#star" x="60"/>
        <use href="#star" x="120"/>
        <use href="#star" x="180"/>
        <use href="#star" x="240"/>
      </g>
      <g transform="translate(0, 80)">
        <use href="#star"/>
        <use href="#star" x="60"/>
        <use href="#star" x="120"/>
        <use href="#star" x="180"/>
        <use href="#star" x="240"/>
      </g>
      <g transform="translate(0, 120)">
        <use href="#star"/>
        <use href="#star" x="60"/>
        <use href="#star" x="120"/>
        <use href="#star" x="180"/>
        <use href="#star" x="240"/>
      </g>
      <g transform="translate(0, 160)">
        <use href="#star"/>
        <use href="#star" x="60"/>
        <use href="#star" x="120"/>
        <use href="#star" x="180"/>
        <use href="#star" x="240"/>
      </g>
    </g>
    <g transform="translate(60, 45)">
      <!-- 6 rows of 6 stars -->
      <g>
        <use href="#star"/>
        <use href="#star" x="50"/>
        <use href="#star" x="100"/>
        <use href="#star" x="150"/>
        <use href="#star" x="200"/>
        <use href="#star" x="250"/>
      </g>
      <g transform="translate(0, 40)">
        <use href="#star"/>
        <use href="#star" x="50"/>
        <use href="#star" x="100"/>
        <use href="#star" x="150"/>
        <use href="#star" x="200"/>
        <use href="#star" x="250"/>
      </g>
      <g transform="translate(0, 80)">
        <use href="#star"/>
        <use href="#star" x="50"/>
        <use href="#star" x="100"/>
        <use href="#star" x="150"/>
        <use href="#star" x="200"/>
        <use href="#star" x="250"/>
      </g>
      <g transform="translate(0, 120)">
        <use href="#star"/>
        <use href="#star" x="50"/>
        <use href="#star" x="100"/>
        <use href="#star" x="150"/>
        <use href="#star" x="200"/>
        <use href="#star" x="250"/>
      </g>
      <g transform="translate(0, 160)">
        <use href="#star"/>
        <use href="#star" x="50"/>
        <use href="#star" x="100"/>
        <use href="#star" x="150"/>
        <use href="#star" x="200"/>
        <use href="#star" x="250"/>
      </g>
      <g transform="translate(0, 200)">
        <use href="#star"/>
        <use href="#star" x="50"/>
        <use href="#star" x="100"/>
        <use href="#star" x="150"/>
        <use href="#star" x="200"/>
        <use href="#star" x="250"/>
      </g>
    </g>
  </g>
</svg>
